<svg xmlns="http://www.w3.org/2000/svg" viewBox="0 0 1280 800" role="img" aria-label="Board overview">
  <defs>
    <linearGradient id="bg" x1="0" y1="0" x2="1" y2="1">
      <stop offset="0" stop-color="#09111f"/>
      <stop offset="1" stop-color="#1d2a3f"/>
    </linearGradient>
    <linearGradient id="gold" x1="0" y1="0" x2="1" y2="1">
      <stop offset="0" stop-color="#f59e0b"/>
      <stop offset="1" stop-color="#fcd34d"/>
    </linearGradient>
  </defs>
  <rect width="1280" height="800" fill="url(#bg)"/>
  <g opacity="0.15" stroke="#e2e8f0">
    <path d="M0 180h1280M0 360h1280M0 540h1280M0 720h1280"/>
    <path d="M180 0v800M360 0v800M540 0v800M720 0v800M900 0v800M1080 0v800"/>
  </g>
  <rect x="190" y="130" width="900" height="540" rx="28" fill="#0f172a" stroke="#334155" stroke-width="4"/>
  <g fill="#1e293b" stroke="#475569" stroke-width="2">
    <rect x="240" y="190" width="800" height="80" rx="10"/>
    <rect x="240" y="290" width="800" height="80" rx="10"/>
    <rect x="240" y="390" width="800" height="80" rx="10"/>
    <rect x="240" y="490" width="800" height="80" rx="10"/>
  </g>
  <g>
    <circle cx="312" cy="230" r="26" fill="url(#gold)"/>
    <circle cx="472" cy="330" r="26" fill="url(#gold)"/>
    <circle cx="632" cy="430" r="26" fill="url(#gold)"/>
    <circle cx="792" cy="530" r="26" fill="url(#gold)"/>
    <circle cx="952" cy="230" r="26" fill="#22d3ee"/>
    <circle cx="872" cy="330" r="26" fill="#22d3ee"/>
    <circle cx="712" cy="430" r="26" fill="#22d3ee"/>
  </g>
  <text x="240" y="105" fill="#f8fafc" font-size="38" font-family="Avenir Next, Segoe UI, sans-serif">Senet Reborn - Board Overview</text>
</svg>
